<?xml version="1.0" encoding="UTF-8" standalone="no"?>
<svg width="22px" height="22px" viewBox="0 0 22 22" version="1.1" xmlns="http://www.w3.org/2000/svg" xmlns:xlink="http://www.w3.org/1999/xlink">
    <!-- Generator: Sketch 46.2 (44496) - http://www.bohemiancoding.com/sketch -->
    <title>mobile-icon-homepage-receptury</title>
    <desc>Created with Sketch.</desc>
    <defs></defs>
    <g id="Mobile" stroke="none" stroke-width="1" fill="none" fill-rule="evenodd">
        <g id="Mobile-Homepage-Cukiernicze" transform="translate(-49.000000, -5899.000000)" stroke="#FFCA03" stroke-width="2">
            <g id="Strefa" transform="translate(0.000000, 5582.000000)">
                <g id="Receptury" transform="translate(50.000000, 312.000000)">
                    <g id="mobile-icon-homepage-receptury" transform="translate(0.000000, 6.000000)">
                        <path d="M9.33333333,4 L16,4" id="Shape" stroke-linecap="square"></path>
                        <path d="M9.33333333,8 L16,8" id="Shape" stroke-linecap="square"></path>
                        <path d="M9.33333333,12 L16,12" id="Shape" stroke-linecap="square"></path>
                        <path d="M12,18 C12,16.8953333 12.8953333,16 14,16 L2,16 C0.895333333,16 0,16.8953333 0,18 L0,20 L12,20 L12,18 Z" id="Shape"></path>
                        <path d="M14,16 C15.1046667,16 16,16.8953333 16,18 C16,19.1046667 16.8953333,20 18,20 C19.1046667,20 20,19.1046667 20,18 L20,0.0213333333 L5.33333333,0.0213333333 L5.33333333,16" id="Shape"></path>
                    </g>
                </g>
            </g>
        </g>
    </g>
</svg>