<?xml version="1.0" encoding="UTF-8" standalone="no"?>
<svg width="33px" height="31px" viewBox="0 0 33 31" version="1.1" xmlns="http://www.w3.org/2000/svg" xmlns:xlink="http://www.w3.org/1999/xlink">
    <!-- Generator: Sketch 46.2 (44496) - http://www.bohemiancoding.com/sketch -->
    <title>logo-footer</title>
    <desc>Created with Sketch.</desc>
    <defs></defs>
    <g id="Symbols" stroke="none" stroke-width="1" fill="none" fill-rule="evenodd">
        <g id="Footer" transform="translate(-380.000000, -494.000000)" fill="#1B1039">
            <g id="logo-footer">
                <path d="M387.758914,522.497436 C388.415077,522.300222 390.183917,521.744493 390.658691,521.367108 C391.244247,520.901463 395.711998,517.503172 398.469343,516.601709 C401.70755,515.543814 409.661243,515.614421 409.661243,515.614421 C409.661243,515.614421 402.336931,517.028398 400.070795,518.167857 C397.805267,519.307925 393.045347,523.944282 392.540747,524.098279 C392.123797,524.226103 390.863818,524.600445 390.440173,524.726443 L387.758914,522.497436 Z M384.310102,519.632354 C385.374693,519.321924 388.004823,518.543416 388.282992,518.326724 C388.632986,518.054641 391.85415,515.569987 394.097764,514.716001 C397.699965,513.344024 405.222709,512.823598 406.276952,512.525342 C407.652581,512.135784 411.428866,509.887908 411.618167,509.717476 C411.808077,509.547044 412.21407,509.261571 412.21407,509.261571 C412.21407,509.261571 411.174435,512.24839 409.464029,513.326981 C407.963619,514.27227 401.627204,513.990448 400.280791,514.171228 C397.805267,514.504788 393.795248,516.887182 390.204612,520.318343 C389.803488,520.701206 387.559265,521.549105 386.907971,521.790753 L384.310102,519.632354 Z M380,516.049631 C380.562425,516.044762 382.170572,516.016154 383.661243,515.839635 C385.500082,515.623551 387.733349,513.440805 389.357322,512.445605 C389.953834,512.081002 394.311413,511.581271 395.898865,511.404144 C398.364041,511.130235 403.863514,511.822311 403.863514,511.822311 C403.863514,511.822311 396.286597,511.713356 393.481166,512.978813 C391.026946,514.086621 388.549596,516.839096 387.780826,517.235351 C387.069273,517.601779 385.351563,518.235421 384.868875,518.323072 C384.506707,518.388201 383.471333,518.483764 382.980124,518.526372 L380,516.049631 Z M392.571181,499.355215 C392.571181,499.355215 390.446869,499.363128 389.779141,499.363128 C388.844809,499.363128 388.680464,497.661852 388.680464,497.661852 C388.680464,497.661852 389.273323,498.25532 389.645839,498.25532 L392.37275,498.257146 L392.571181,499.355215 Z M397.825354,504.18696 C402.303453,501.853869 401.153038,497.862109 399.53576,496.193094 C403.019267,497.997238 403.70343,504.434695 397.825354,504.18696 L397.825354,504.18696 Z M394.011331,508.422802 L393.370385,507.990027 L391.998408,508.971228 L391.997191,508.881751 C391.997191,507.164041 393.730118,505.160248 397.009716,505.972235 C394.643755,506.339881 393.934028,507.307082 394.011331,508.422802 L394.011331,508.422802 Z M389.857053,509.492871 C388.133864,506.926653 389.692707,504.935643 390.764603,504.299567 L390.386,503.847314 C390.991034,503.479059 392.013017,503.387147 392.773265,503.387147 C393.55786,503.387147 394.543931,503.672621 395.161746,504.063397 C391.516938,503.891748 389.670795,506.398314 389.857053,509.492871 L389.857053,509.492871 Z M396.231207,495.534496 C396.934847,495.438324 397.525272,495.558235 398.074306,495.774927 C396.754676,496.610043 396.064427,496.429264 396.231207,495.534496 L396.231207,495.534496 Z M405.037668,501.775957 C405.037668,498.038628 402.350322,494.570338 398.567342,494.090694 C398.079785,494.029217 397.902657,494.006696 397.371275,494 L397.116236,494.807117 C396.815545,494.769987 396.780241,494.751118 396.469812,494.751118 L396.195294,494.756596 L392.036755,496.405525 L392.333185,498.052019 L395.406438,498.056889 C395.586609,498.215147 395.671216,498.576706 395.671216,498.835397 C395.671216,499.311389 395.315744,499.554864 394.842795,499.556081 L392.605876,499.556081 C392.661267,499.861641 392.711179,500.064942 392.69657,500.133115 C392.643006,500.375372 391.320332,501.234836 391.320332,501.234836 C391.320332,501.234836 392.392228,500.909189 392.966827,500.820321 C394.010722,500.65841 394.700972,500.905537 395.305396,500.807538 C395.821562,500.722931 396.497811,500.382067 396.497811,500.382067 L396.088774,501.166663 C397.172235,500.954232 397.989699,499.999204 397.989699,498.853658 C397.989699,498.584619 397.944656,498.326536 397.862484,498.086106 C398.320824,498.516446 398.415779,499.15374 398.415779,499.832424 C398.415779,501.134402 397.416317,501.978041 396.114339,501.978041 C394.679059,501.978041 393.730118,501.753436 392.104928,501.753436 C390.888774,501.754044 389.976355,502.079082 389.116282,502.642725 C389.116282,502.642725 388.614726,501.987779 387.590308,500.671801 C386.516587,499.29252 385.781295,498.061758 384.932178,497.966195 C383.826806,497.842023 383.453681,497.810371 382.227789,497.946717 C381.381716,498.040454 382.023879,500.184853 382.023879,500.184853 C382.023879,500.184853 382.126138,499.753904 382.263093,499.549994 C382.352569,499.417301 382.522393,499.231652 382.522393,499.231652 L382.924125,500.144071 C383.244902,500.572586 384.479925,500.485544 384.717921,500.652932 C385.074002,500.903711 385.630949,501.635959 385.976074,502.446728 C386.400328,503.442538 386.739366,504.921035 386.739366,504.921035 C386.739366,504.921035 386.600585,504.860166 386.263982,504.731734 C385.380171,504.395739 384.448882,504.220438 383.899848,504.494955 C382.905256,504.992251 382.57474,505.169378 381.620929,505.950931 C380.96294,506.490835 382.600304,507.901159 382.600304,507.901159 C382.600304,507.901159 382.519958,507.521948 382.524219,507.276648 C382.526653,507.116563 382.568044,506.868828 382.568044,506.868828 L383.401943,507.415428 C383.904109,507.599251 384.472012,506.713613 385.182957,506.864567 C385.771556,506.989348 386.404589,507.534122 386.650497,507.705771 C386.770409,509.09053 387.406485,510.32677 388.364556,511.223364 C388.676203,510.982933 389.241063,510.605548 389.644621,510.46129 C390.197308,510.264076 396.183729,509.811214 396.183729,509.811214 L395.527566,508.630364 L401.28634,506.853002 L401.28634,508.397846 C403.028398,506.991174 404.142901,504.838254 404.142901,502.424207 C404.142901,502.298818 404.106379,501.95978 404.082032,501.723001 L405.004799,502.292122 C405.012712,502.191689 405.037668,501.882477 405.037668,501.775957 L405.037668,501.775957 Z"></path>
            </g>
        </g>
    </g>
</svg>